# xmcd
#
# Track frame offsets: 
#        150
#        11829
#        21871
#        33070
#        41880
#        53526
#        62719
#        72147
#        84887
#        96777
#        108083
#        117363
#        127450
#        139907
#        150702
#        161169
#        172154
#        182243
#        192388
#        200445
#
# Disc length: 2821 seconds
#
# Revision: 2
# Processed by: cddbd v1.5.2PL0 Copyright (c) Steve Scherf et al.
# Submitted via: ExactAudioCopy v0.95b4
#
DISCID=1b0b0314
DTITLE=Johnny Cash - The Complete Sun Recordings 1955-1958  [CD1]
DYEAR=2005
DGENRE=Country
TTITLE0=Wide Open Road
TTITLE1=Hey, Porter
TTITLE2=Cry, Cry, Cry
TTITLE3=My Two Timin' Woman
TTITLE4=Port of Lonely Hearts
TTITLE5=I Couldn't Keep from Crying
TTITLE6=Trail to Mexico
TTITLE7=Folsom Prison Blues
TTITLE8=So Doggone Lonesome
TTITLE9=Mean Eyed Cat
TTITLE10=Luther Played the Boogie
TTITLE11=Get Rhythm
TTITLE12=I Walk the Line
TTITLE13=Train of Love
TTITLE14=There You Go
TTITLE15=I Love You Because
TTITLE16=Goodbye Little Darlin'
TTITLE17=Straight A's in Love
TTITLE18=You're My Baby (Little Woolly Booger) (INCLUDES FALSE STARTS)
TTITLE19=My Treasure (INCLUDES FALSE START)
EXTD=YEAR: 2005
EXTT0=
EXTT1=
EXTT2=
EXTT3=
EXTT4=
EXTT5=
EXTT6=
EXTT7=
EXTT8=
EXTT9=
EXTT10=
EXTT11=
EXTT12=
EXTT13=
EXTT14=
EXTT15=
EXTT16=
EXTT17=
EXTT18=
EXTT19=
PLAYORDER=
